# xmcd
# 
# Track frame offsets:
#     150
#     24892
#     47426
#     64095
#     81211
#     103949
#     120666
#     140261
#     158977
#     179173
#     207986
#     230435
#     252457
#     272639
#     295452
# 
# Disc length: 4376
# 
# Revision: 5
# Processed by: cddbd v1.5.2PL0 Copyright (c) Steve Scherf et al.
# Submitted via: fre:ac v1.0.31
# 
DISCID=dc11160f
DTITLE=The Moody Blues - Octave (2008 remaster)
DYEAR=1978
DGENRE=Rock/Pop
TTITLE0=Steppin' In A Slide Zone
TTITLE1=Under Moonshine
TTITLE2=Had To Fall In Love
TTITLE3=I'll Be Level With You
TTITLE4=Driftwood
TTITLE5=Top Rank Suite
TTITLE6=I'm Your Man
TTITLE7=Survival
TTITLE8=One Step Into The Light
TTITLE9=The Day We Meet Again
TTITLE10=Steppin' In A Slide Zone (bonus) (live at the Coliseum, Seattle, WA) 1979-05-25
TTITLE11=I'm Your Man (bonus) (live at the Coliseum, Seattle, WA) 1979-05-25
TTITLE12=Top Rank Suite (bonus) (live at the Coliseum, Seattle, WA) 1979-05-25
TTITLE13=Driftwood (bonus) (live at the Coliseum, Seattle, WA) 1979-05-25
TTITLE14=The Day We Meet Again (bonus) (live at The Summit, Houston, TX) 1978-12-07
EXTD=
EXTT0=
EXTT1=
EXTT2=
EXTT3=
EXTT4=
EXTT5=
EXTT6=
EXTT7=
EXTT8=
EXTT9=
EXTT10=
EXTT11=
EXTT12=
EXTT13=
EXTT14=
PLAYORDER=
